# xmcd
#
# Track frame offsets: 
#        150
#        5237
#        12712
#        17468
#        24011
#        37374
#        41790
#        51446
#        61543
#
# Disc length: 943 seconds
#
# Revision: 2
# Processed by: cddbd v1.5.2PL0 Copyright (c) Steve Scherf et al.
# Submitted via: ExactAudioCopy v0.99pb4
#
DISCID=7003ad09
DTITLE=Enemy Soil - Casualities Of Progress
DYEAR=2008
DGENRE=Grindcore
TTITLE0=Group Think
TTITLE1=Sentencing
TTITLE2=Common Ground
TTITLE3=Fall Of Empire
TTITLE4=Trapped In A Routine
TTITLE5=Closet Nazis
TTITLE6=Death Sentence
TTITLE7=Self Gratification
TTITLE8=Unchallenged Hate
EXTD=
EXTT0=
EXTT1=
EXTT2=
EXTT3=
EXTT4=
EXTT5=
EXTT6=
EXTT7=
EXTT8=
PLAYORDER=
